<svg width="32" height="32" viewBox="0 0 1400 344" fill="none" xmlns="http://www.w3.org/2000/svg">
<rect x="10" y="30" width="304" height="304" fill="#89CFF0" fill-opacity="0.1" stroke="#89CFF0" stroke-width="20"/>
<path d="M10 168.5C32.1667 146.833 90.8 117.1 148 171.5C219.5 239.5 257.5 240.5 316 220" stroke="#89CFF0" stroke-width="25"/>
<path d="M9.5 242.5C34 217 93.3711 186.371 155.5 248.5C223 316 287.333 292 317 272.5M317 138.5C299.833 130.333 254.5 122.7 210.5 157.5C166.5 192.3 159.5 182 147.5 171" stroke="#89CFF0" stroke-width="25"/>
<mask id="path-4-outside-1_208_2" maskUnits="userSpaceOnUse" x="364" y="58" width="1016" height="237" fill="black">
<rect fill="white" x="364" y="58" width="1016" height="237"/>
<path d="M365.2 291V81H397.3L489.1 234.3H472.3L562.6 81H594.7L595 291H558.1L557.8 138.9H565.6L488.8 267H471.4L393.4 138.9H402.4V291H365.2ZM746.823 291V258.6L744.723 251.7V195C744.723 184 741.423 175.5 734.823 169.5C728.223 163.3 718.223 160.2 704.823 160.2C695.823 160.2 686.923 161.6 678.123 164.4C669.523 167.2 662.223 171.1 656.223 176.1L641.523 148.8C650.123 142.2 660.323 137.3 672.123 134.1C684.123 130.7 696.523 129 709.323 129C732.523 129 750.423 134.6 763.023 145.8C775.823 156.8 782.223 173.9 782.223 197.1V291H746.823ZM696.423 293.1C684.423 293.1 673.923 291.1 664.923 287.1C655.923 282.9 648.923 277.2 643.923 270C639.123 262.6 636.723 254.3 636.723 245.1C636.723 236.1 638.823 228 643.023 220.8C647.423 213.6 654.523 207.9 664.323 203.7C674.123 199.5 687.123 197.4 703.323 197.4H749.823V222.3H706.023C693.223 222.3 684.623 224.4 680.223 228.6C675.823 232.6 673.623 237.6 673.623 243.6C673.623 250.4 676.323 255.8 681.723 259.8C687.123 263.8 694.623 265.8 704.223 265.8C713.423 265.8 721.623 263.7 728.823 259.5C736.223 255.3 741.523 249.1 744.723 240.9L751.023 263.4C747.423 272.8 740.923 280.1 731.523 285.3C722.323 290.5 710.623 293.1 696.423 293.1ZM830.35 291V130.8H866.05V174.9L861.85 162C866.65 151.2 874.15 143 884.35 137.4C894.75 131.8 907.65 129 923.05 129V164.7C921.45 164.3 919.95 164.1 918.55 164.1C917.15 163.9 915.75 163.8 914.35 163.8C900.15 163.8 888.85 168 880.45 176.4C872.05 184.6 867.85 196.9 867.85 213.3V291H830.35ZM1003.32 291L934.621 130.8H973.621L1032.72 272.1H1013.52L1074.72 130.8H1110.72L1042.02 291H1003.32ZM1134.16 291V130.8H1171.66V291H1134.16ZM1153.06 104.4C1146.06 104.4 1140.26 102.2 1135.66 97.8C1131.26 93.4 1129.06 88.1 1129.06 81.9C1129.06 75.5 1131.26 70.2 1135.66 66C1140.26 61.6 1146.06 59.4 1153.06 59.4C1160.06 59.4 1165.76 61.5 1170.16 65.7C1174.76 69.7 1177.06 74.8 1177.06 81C1177.06 87.6 1174.86 93.2 1170.46 97.8C1166.06 102.2 1160.26 104.4 1153.06 104.4ZM1292.88 293.1C1276.48 293.1 1261.88 289.6 1249.08 282.6C1236.28 275.4 1226.18 265.6 1218.78 253.2C1211.38 240.8 1207.68 226.7 1207.68 210.9C1207.68 194.9 1211.38 180.8 1218.78 168.6C1226.18 156.2 1236.28 146.5 1249.08 139.5C1261.88 132.5 1276.48 129 1292.88 129C1309.48 129 1324.18 132.5 1336.98 139.5C1349.98 146.5 1360.08 156.1 1367.28 168.3C1374.68 180.5 1378.38 194.7 1378.38 210.9C1378.38 226.7 1374.68 240.8 1367.28 253.2C1360.08 265.6 1349.98 275.4 1336.98 282.6C1324.18 289.6 1309.48 293.1 1292.88 293.1ZM1292.88 261C1302.08 261 1310.28 259 1317.48 255C1324.68 251 1330.28 245.2 1334.28 237.6C1338.48 230 1340.58 221.1 1340.58 210.9C1340.58 200.5 1338.48 191.6 1334.28 184.2C1330.28 176.6 1324.68 170.8 1317.48 166.8C1310.28 162.8 1302.18 160.8 1293.18 160.8C1283.98 160.8 1275.78 162.8 1268.58 166.8C1261.58 170.8 1255.98 176.6 1251.78 184.2C1247.58 191.6 1245.48 200.5 1245.48 210.9C1245.48 221.1 1247.58 230 1251.78 237.6C1255.98 245.2 1261.58 251 1268.58 255C1275.78 259 1283.88 261 1292.88 261Z"/>
</mask>
<path d="M365.2 291V81H397.3L489.1 234.3H472.3L562.6 81H594.7L595 291H558.1L557.8 138.9H565.6L488.8 267H471.4L393.4 138.9H402.4V291H365.2ZM746.823 291V258.6L744.723 251.7V195C744.723 184 741.423 175.5 734.823 169.5C728.223 163.3 718.223 160.2 704.823 160.2C695.823 160.2 686.923 161.6 678.123 164.4C669.523 167.2 662.223 171.1 656.223 176.1L641.523 148.8C650.123 142.2 660.323 137.3 672.123 134.1C684.123 130.7 696.523 129 709.323 129C732.523 129 750.423 134.6 763.023 145.8C775.823 156.8 782.223 173.9 782.223 197.1V291H746.823ZM696.423 293.1C684.423 293.1 673.923 291.1 664.923 287.1C655.923 282.9 648.923 277.2 643.923 270C639.123 262.6 636.723 254.3 636.723 245.1C636.723 236.1 638.823 228 643.023 220.8C647.423 213.6 654.523 207.9 664.323 203.7C674.123 199.5 687.123 197.4 703.323 197.4H749.823V222.3H706.023C693.223 222.3 684.623 224.4 680.223 228.6C675.823 232.6 673.623 237.6 673.623 243.6C673.623 250.4 676.323 255.8 681.723 259.8C687.123 263.8 694.623 265.8 704.223 265.8C713.423 265.8 721.623 263.7 728.823 259.5C736.223 255.3 741.523 249.1 744.723 240.9L751.023 263.4C747.423 272.8 740.923 280.1 731.523 285.3C722.323 290.5 710.623 293.1 696.423 293.1ZM830.35 291V130.8H866.05V174.9L861.85 162C866.65 151.2 874.15 143 884.35 137.4C894.75 131.8 907.65 129 923.05 129V164.7C921.45 164.3 919.95 164.1 918.55 164.1C917.15 163.9 915.75 163.8 914.35 163.8C900.15 163.8 888.85 168 880.45 176.4C872.05 184.6 867.85 196.9 867.85 213.3V291H830.35ZM1003.32 291L934.621 130.8H973.621L1032.72 272.1H1013.52L1074.72 130.8H1110.72L1042.02 291H1003.32ZM1134.16 291V130.8H1171.66V291H1134.16ZM1153.06 104.4C1146.06 104.4 1140.26 102.2 1135.66 97.8C1131.26 93.4 1129.06 88.1 1129.06 81.9C1129.06 75.5 1131.26 70.2 1135.66 66C1140.26 61.6 1146.06 59.4 1153.06 59.4C1160.06 59.4 1165.76 61.5 1170.16 65.7C1174.76 69.7 1177.06 74.8 1177.06 81C1177.06 87.6 1174.86 93.2 1170.46 97.8C1166.06 102.2 1160.26 104.4 1153.06 104.4ZM1292.88 293.1C1276.48 293.1 1261.88 289.6 1249.08 282.6C1236.28 275.4 1226.18 265.6 1218.78 253.2C1211.38 240.8 1207.68 226.7 1207.68 210.9C1207.68 194.9 1211.38 180.8 1218.78 168.6C1226.18 156.2 1236.28 146.5 1249.08 139.5C1261.88 132.5 1276.48 129 1292.88 129C1309.48 129 1324.18 132.5 1336.98 139.5C1349.98 146.5 1360.08 156.1 1367.28 168.3C1374.68 180.5 1378.38 194.7 1378.38 210.9C1378.38 226.7 1374.68 240.8 1367.28 253.2C1360.08 265.6 1349.98 275.4 1336.98 282.6C1324.18 289.6 1309.48 293.1 1292.88 293.1ZM1292.88 261C1302.08 261 1310.28 259 1317.48 255C1324.68 251 1330.28 245.2 1334.28 237.6C1338.48 230 1340.58 221.1 1340.58 210.9C1340.58 200.5 1338.48 191.6 1334.28 184.2C1330.28 176.6 1324.68 170.8 1317.48 166.8C1310.28 162.8 1302.18 160.8 1293.18 160.8C1283.98 160.8 1275.78 162.8 1268.58 166.8C1261.58 170.8 1255.98 176.6 1251.78 184.2C1247.58 191.6 1245.48 200.5 1245.48 210.9C1245.48 221.1 1247.58 230 1251.78 237.6C1255.98 245.2 1261.58 251 1268.58 255C1275.78 259 1283.88 261 1292.88 261Z" fill="#89CFF0"/>
<path d="M365.2 291H364.2V292H365.2V291ZM365.2 81V80H364.2V81H365.2ZM397.3 81L398.158 80.4862L397.867 80H397.3V81ZM489.1 234.3V235.3H490.864L489.958 233.786L489.1 234.3ZM472.3 234.3L471.438 233.792L470.55 235.3H472.3V234.3ZM562.6 81V80H562.028L561.738 80.4924L562.6 81ZM594.7 81L595.7 80.9986L595.699 80H594.7V81ZM595 291V292H596.001L596 290.999L595 291ZM558.1 291L557.1 291.002L557.102 292H558.1V291ZM557.8 138.9V137.9H556.798L556.8 138.902L557.8 138.9ZM565.6 138.9L566.458 139.414L567.365 137.9H565.6V138.9ZM488.8 267V268H489.366L489.658 267.514L488.8 267ZM471.4 267L470.546 267.52L470.838 268H471.4V267ZM393.4 138.9V137.9H391.62L392.546 139.42L393.4 138.9ZM402.4 138.9H403.4V137.9H402.4V138.9ZM402.4 291V292H403.4V291H402.4ZM365.2 291H366.2V81H365.2H364.2V291H365.2ZM365.2 81V82H397.3V81V80H365.2V81ZM397.3 81L396.442 81.5137L488.242 234.814L489.1 234.3L489.958 233.786L398.158 80.4862L397.3 81ZM489.1 234.3V233.3H472.3V234.3V235.3H489.1V234.3ZM472.3 234.3L473.162 234.808L563.462 81.5075L562.6 81L561.738 80.4924L471.438 233.792L472.3 234.3ZM562.6 81V82H594.7V81V80H562.6V81ZM594.7 81L593.7 81.0014L594 291.001L595 291L596 290.999L595.7 80.9986L594.7 81ZM595 291V290H558.1V291V292H595V291ZM558.1 291L559.1 290.998L558.8 138.898L557.8 138.9L556.8 138.902L557.1 291.002L558.1 291ZM557.8 138.9V139.9H565.6V138.9V137.9H557.8V138.9ZM565.6 138.9L564.742 138.386L487.942 266.486L488.8 267L489.658 267.514L566.458 139.414L565.6 138.9ZM488.8 267V266H471.4V267V268H488.8V267ZM471.4 267L472.254 266.48L394.254 138.38L393.4 138.9L392.546 139.42L470.546 267.52L471.4 267ZM393.4 138.9V139.9H402.4V138.9V137.9H393.4V138.9ZM402.4 138.9H401.4V291H402.4H403.4V138.9H402.4ZM402.4 291V290H365.2V291V292H402.4V291ZM746.823 291H745.823V292H746.823V291ZM746.823 258.6H747.823V258.451L747.78 258.309L746.823 258.6ZM744.723 251.7H743.723V251.849L743.767 251.991L744.723 251.7ZM734.823 169.5L734.139 170.229L734.145 170.234L734.151 170.24L734.823 169.5ZM678.123 164.4L677.82 163.447L677.814 163.449L678.123 164.4ZM656.223 176.1L655.343 176.574L655.923 177.652L656.864 176.868L656.223 176.1ZM641.523 148.8L640.915 148.007L640.24 148.525L640.643 149.274L641.523 148.8ZM672.123 134.1L672.385 135.065L672.396 135.062L672.123 134.1ZM763.023 145.8L762.359 146.547L762.365 146.553L762.372 146.558L763.023 145.8ZM782.223 291V292H783.223V291H782.223ZM664.923 287.1L664.501 288.006L664.509 288.01L664.517 288.014L664.923 287.1ZM643.923 270L643.084 270.544L643.093 270.557L643.102 270.57L643.923 270ZM643.023 220.8L642.17 220.279L642.165 220.287L642.16 220.296L643.023 220.8ZM664.323 203.7L664.717 204.619L664.323 203.7ZM749.823 197.4H750.823V196.4H749.823V197.4ZM749.823 222.3V223.3H750.823V222.3H749.823ZM680.223 228.6L680.896 229.34L680.905 229.332L680.914 229.323L680.223 228.6ZM681.723 259.8L681.128 260.604L681.723 259.8ZM728.823 259.5L728.33 258.63L728.32 258.636L728.823 259.5ZM744.723 240.9L745.686 240.63L744.88 237.749L743.792 240.536L744.723 240.9ZM751.023 263.4L751.957 263.758L752.076 263.449L751.986 263.13L751.023 263.4ZM731.523 285.3L731.039 284.425L731.031 284.429L731.523 285.3ZM746.823 291H747.823V258.6H746.823H745.823V291H746.823ZM746.823 258.6L747.78 258.309L745.68 251.409L744.723 251.7L743.767 251.991L745.867 258.891L746.823 258.6ZM744.723 251.7H745.723V195H744.723H743.723V251.7H744.723ZM744.723 195H745.723C745.723 183.789 742.352 174.992 735.496 168.76L734.823 169.5L734.151 170.24C740.495 176.008 743.723 184.211 743.723 195H744.723ZM734.823 169.5L735.508 168.771C728.651 162.329 718.358 159.2 704.823 159.2V160.2V161.2C718.089 161.2 727.796 164.271 734.139 170.229L734.823 169.5ZM704.823 160.2V159.2C695.718 159.2 686.716 160.617 677.82 163.447L678.123 164.4L678.427 165.353C687.131 162.583 695.929 161.2 704.823 161.2V160.2ZM678.123 164.4L677.814 163.449C669.112 166.282 661.695 170.239 655.583 175.332L656.223 176.1L656.864 176.868C662.752 171.961 669.935 168.118 678.433 165.351L678.123 164.4ZM656.223 176.1L657.104 175.626L642.404 148.326L641.523 148.8L640.643 149.274L655.343 176.574L656.223 176.1ZM641.523 148.8L642.132 149.593C650.616 143.082 660.695 138.235 672.385 135.065L672.123 134.1L671.862 133.135C659.952 136.365 649.63 141.318 640.915 148.007L641.523 148.8ZM672.123 134.1L672.396 135.062C684.305 131.688 696.613 130 709.323 130V129V128C696.434 128 683.942 129.712 671.851 133.138L672.123 134.1ZM709.323 129V130C732.371 130 750.001 135.563 762.359 146.547L763.023 145.8L763.688 145.053C750.846 133.637 732.676 128 709.323 128V129ZM763.023 145.8L762.372 146.558C774.877 157.305 781.223 174.077 781.223 197.1H782.223H783.223C783.223 173.723 776.77 156.295 763.675 145.042L763.023 145.8ZM782.223 197.1H781.223V291H782.223H783.223V197.1H782.223ZM782.223 291V290H746.823V291V292H782.223V291ZM696.423 293.1V292.1C684.533 292.1 674.177 290.118 665.33 286.186L664.923 287.1L664.517 288.014C673.67 292.082 684.313 294.1 696.423 294.1V293.1ZM664.923 287.1L665.346 286.194C656.485 282.058 649.631 276.466 644.745 269.43L643.923 270L643.102 270.57C648.216 277.934 655.362 283.742 664.501 288.006L664.923 287.1ZM643.923 270L644.762 269.456C640.072 262.225 637.723 254.116 637.723 245.1H636.723H635.723C635.723 254.484 638.175 262.975 643.084 270.544L643.923 270ZM636.723 245.1H637.723C637.723 236.262 639.784 228.339 643.887 221.304L643.023 220.8L642.16 220.296C637.863 227.661 635.723 235.938 635.723 245.1H636.723ZM643.023 220.8L643.877 221.321C648.143 214.34 655.058 208.759 664.717 204.619L664.323 203.7L663.93 202.781C653.989 207.041 646.704 212.86 642.17 220.279L643.023 220.8ZM664.323 203.7L664.717 204.619C674.345 200.493 687.195 198.4 703.323 198.4V197.4V196.4C687.051 196.4 673.901 198.507 663.93 202.781L664.323 203.7ZM703.323 197.4V198.4H749.823V197.4V196.4H703.323V197.4ZM749.823 197.4H748.823V222.3H749.823H750.823V197.4H749.823ZM749.823 222.3V221.3H706.023V222.3V223.3H749.823V222.3ZM706.023 222.3V221.3C699.576 221.3 694.14 221.828 689.736 222.904C685.339 223.977 681.905 225.613 679.533 227.877L680.223 228.6L680.914 229.323C682.942 227.387 686.008 225.873 690.211 224.846C694.407 223.822 699.671 223.3 706.023 223.3V222.3ZM680.223 228.6L679.551 227.86C674.94 232.052 672.623 237.321 672.623 243.6H673.623H674.623C674.623 237.879 676.707 233.148 680.896 229.34L680.223 228.6ZM673.623 243.6H672.623C672.623 250.712 675.47 256.412 681.128 260.604L681.723 259.8L682.319 258.996C677.177 255.188 674.623 250.088 674.623 243.6H673.623ZM681.723 259.8L681.128 260.604C686.76 264.775 694.498 266.8 704.223 266.8V265.8V264.8C694.749 264.8 687.487 262.825 682.319 258.996L681.723 259.8ZM704.223 265.8V266.8C713.582 266.8 721.959 264.662 729.327 260.364L728.823 259.5L728.32 258.636C721.288 262.738 713.265 264.8 704.223 264.8V265.8ZM728.823 259.5L729.317 260.37C736.924 256.052 742.375 249.67 745.655 241.264L744.723 240.9L743.792 240.536C740.672 248.53 735.523 254.548 728.33 258.63L728.823 259.5ZM744.723 240.9L743.76 241.17L750.06 263.67L751.023 263.4L751.986 263.13L745.686 240.63L744.723 240.9ZM751.023 263.4L750.09 263.042C746.58 272.207 740.248 279.331 731.039 284.425L731.523 285.3L732.008 286.175C741.599 280.869 748.267 273.393 751.957 263.758L751.023 263.4ZM731.523 285.3L731.031 284.429C722.024 289.52 710.508 292.1 696.423 292.1V293.1V294.1C710.739 294.1 722.622 291.48 732.016 286.171L731.523 285.3ZM830.35 291H829.35V292H830.35V291ZM830.35 130.8V129.8H829.35V130.8H830.35ZM866.05 130.8H867.05V129.8H866.05V130.8ZM866.05 174.9L865.099 175.21L867.05 174.9H866.05ZM861.85 162L860.936 161.594L860.78 161.945L860.899 162.31L861.85 162ZM884.35 137.4L883.876 136.519L883.869 136.523L884.35 137.4ZM923.05 129H924.05V128H923.05V129ZM923.05 164.7L922.807 165.67L924.05 165.981V164.7H923.05ZM918.55 164.1L918.409 165.09L918.479 165.1H918.55V164.1ZM880.45 176.4L881.149 177.116L881.157 177.107L880.45 176.4ZM867.85 291V292H868.85V291H867.85ZM830.35 291H831.35V130.8H830.35H829.35V291H830.35ZM830.35 130.8V131.8H866.05V130.8V129.8H830.35V130.8ZM866.05 130.8H865.05V174.9H866.05H867.05V130.8H866.05ZM866.05 174.9L867.001 174.59L862.801 161.69L861.85 162L860.899 162.31L865.099 175.21L866.05 174.9ZM861.85 162L862.764 162.406C867.477 151.803 874.826 143.77 884.831 138.277L884.35 137.4L883.869 136.523C873.474 142.23 865.824 150.597 860.936 161.594L861.85 162ZM884.35 137.4L884.824 138.28C895.041 132.779 907.767 130 923.05 130V129V128C907.533 128 894.459 130.821 883.876 136.52L884.35 137.4ZM923.05 129H922.05V164.7H923.05H924.05V129H923.05ZM923.05 164.7L923.293 163.73C921.627 163.313 920.045 163.1 918.55 163.1V164.1V165.1C919.855 165.1 921.273 165.287 922.807 165.67L923.05 164.7ZM918.55 164.1L918.691 163.11C917.245 162.903 915.798 162.8 914.35 162.8V163.8V164.8C915.702 164.8 917.055 164.897 918.409 165.09L918.55 164.1ZM914.35 163.8V162.8C899.94 162.8 888.366 167.069 879.743 175.693L880.45 176.4L881.157 177.107C889.334 168.931 900.36 164.8 914.35 164.8V163.8ZM880.45 176.4L879.751 175.684C871.093 184.137 866.85 196.74 866.85 213.3H867.85H868.85C868.85 197.06 873.007 185.063 881.149 177.116L880.45 176.4ZM867.85 213.3H866.85V291H867.85H868.85V213.3H867.85ZM867.85 291V290H830.35V291V292H867.85V291ZM1003.32 291L1002.4 291.394L1002.66 292H1003.32V291ZM934.621 130.8V129.8H933.104L933.702 131.194L934.621 130.8ZM973.621 130.8L974.544 130.414L974.287 129.8H973.621V130.8ZM1032.72 272.1V273.1H1034.22L1033.64 271.714L1032.72 272.1ZM1013.52 272.1L1012.6 271.703L1012 273.1H1013.52V272.1ZM1074.72 130.8V129.8H1074.06L1073.8 130.403L1074.72 130.8ZM1110.72 130.8L1111.64 131.194L1112.24 129.8H1110.72V130.8ZM1042.02 291V292H1042.68L1042.94 291.394L1042.02 291ZM1003.32 291L1004.24 290.606L935.54 130.406L934.621 130.8L933.702 131.194L1002.4 291.394L1003.32 291ZM934.621 130.8V131.8H973.621V130.8V129.8H934.621V130.8ZM973.621 130.8L972.699 131.186L1031.8 272.486L1032.72 272.1L1033.64 271.714L974.544 130.414L973.621 130.8ZM1032.72 272.1V271.1H1013.52V272.1V273.1H1032.72V272.1ZM1013.52 272.1L1014.44 272.497L1075.64 131.197L1074.72 130.8L1073.8 130.403L1012.6 271.703L1013.52 272.1ZM1074.72 130.8V131.8H1110.72V130.8V129.8H1074.72V130.8ZM1110.72 130.8L1109.8 130.406L1041.1 290.606L1042.02 291L1042.94 291.394L1111.64 131.194L1110.72 130.8ZM1042.02 291V290H1003.32V291V292H1042.02V291ZM1134.16 291H1133.16V292H1134.16V291ZM1134.16 130.8V129.8H1133.16V130.8H1134.16ZM1171.66 130.8H1172.66V129.8H1171.66V130.8ZM1171.66 291V292H1172.66V291H1171.66ZM1135.66 97.8L1134.95 98.5071L1134.96 98.5149L1134.97 98.5226L1135.66 97.8ZM1135.66 66L1136.35 66.7233L1136.35 66.7226L1135.66 66ZM1170.16 65.7L1169.47 66.4233L1169.48 66.4394L1169.5 66.4546L1170.16 65.7ZM1170.46 97.8L1171.17 98.5071L1171.17 98.4992L1171.18 98.4912L1170.46 97.8ZM1134.16 291H1135.16V130.8H1134.16H1133.16V291H1134.16ZM1134.16 130.8V131.8H1171.66V130.8V129.8H1134.16V130.8ZM1171.66 130.8H1170.66V291H1171.66H1172.66V130.8H1171.66ZM1171.66 291V290H1134.16V291V292H1171.66V291ZM1153.06 104.4V103.4C1146.29 103.4 1140.74 101.281 1136.35 97.0773L1135.66 97.8L1134.97 98.5226C1139.77 103.119 1145.83 105.4 1153.06 105.4V104.4ZM1135.66 97.8L1136.37 97.0929C1132.15 92.8797 1130.06 87.8337 1130.06 81.9H1129.06H1128.06C1128.06 88.3663 1130.36 93.9203 1134.95 98.5071L1135.66 97.8ZM1129.06 81.9H1130.06C1130.06 75.7573 1132.16 70.7239 1136.35 66.7233L1135.66 66L1134.97 65.2766C1130.36 69.6761 1128.06 75.2427 1128.06 81.9H1129.06ZM1135.66 66L1136.35 66.7226C1140.74 62.5191 1146.29 60.4 1153.06 60.4V59.4V58.4C1145.83 58.4 1139.77 60.6809 1134.97 65.2773L1135.66 66ZM1153.06 59.4V60.4C1159.84 60.4 1165.28 62.4278 1169.47 66.4233L1170.16 65.7L1170.85 64.9766C1166.23 60.5722 1160.27 58.4 1153.06 58.4V59.4ZM1170.16 65.7L1169.5 66.4546C1173.88 70.261 1176.06 75.0838 1176.06 81H1177.06H1178.06C1178.06 74.5162 1175.64 69.139 1170.81 64.9454L1170.16 65.7ZM1177.06 81H1176.06C1176.06 87.353 1173.95 92.7023 1169.74 97.1088L1170.46 97.8L1171.18 98.4912C1175.77 93.6976 1178.06 87.847 1178.06 81H1177.06ZM1170.46 97.8L1169.75 97.0929C1165.57 101.276 1160.04 103.4 1153.06 103.4V104.4V105.4C1160.48 105.4 1166.55 103.124 1171.17 98.5071L1170.46 97.8ZM1249.08 282.6L1248.59 283.472L1248.6 283.477L1249.08 282.6ZM1218.78 253.2L1217.92 253.712L1218.78 253.2ZM1218.78 168.6L1219.63 169.119L1219.64 169.112L1218.78 168.6ZM1249.08 139.5L1249.56 140.377V140.377L1249.08 139.5ZM1336.98 139.5L1336.5 140.377L1336.5 140.38L1336.98 139.5ZM1367.28 168.3L1366.42 168.808L1366.42 168.819L1367.28 168.3ZM1367.28 253.2L1366.42 252.688L1366.41 252.698L1367.28 253.2ZM1336.98 282.6L1337.46 283.477L1337.46 283.475L1336.98 282.6ZM1317.48 255L1316.99 254.126L1317.48 255ZM1334.28 237.6L1333.4 237.116L1333.4 237.125L1333.39 237.134L1334.28 237.6ZM1334.28 184.2L1333.39 184.666L1333.4 184.68L1333.41 184.694L1334.28 184.2ZM1317.48 166.8L1317.96 165.926L1317.48 166.8ZM1268.58 166.8L1268.09 165.926L1268.08 165.932L1268.58 166.8ZM1251.78 184.2L1252.65 184.694L1252.65 184.684L1251.78 184.2ZM1251.78 237.6L1250.9 238.084L1251.78 237.6ZM1268.58 255L1268.08 255.868L1268.09 255.874L1268.58 255ZM1292.88 293.1V292.1C1276.62 292.1 1262.19 288.633 1249.56 281.723L1249.08 282.6L1248.6 283.477C1261.56 290.567 1276.33 294.1 1292.88 294.1V293.1ZM1249.08 282.6L1249.57 281.728C1236.92 274.612 1226.95 264.935 1219.64 252.688L1218.78 253.2L1217.92 253.712C1225.41 266.265 1235.64 276.188 1248.59 283.472L1249.08 282.6ZM1218.78 253.2L1219.64 252.688C1212.34 240.457 1208.68 226.537 1208.68 210.9H1207.68H1206.68C1206.68 226.863 1210.42 241.143 1217.92 253.712L1218.78 253.2ZM1207.68 210.9H1208.68C1208.68 195.06 1212.34 181.144 1219.63 169.119L1218.78 168.6L1217.92 168.081C1210.42 180.456 1206.68 194.74 1206.68 210.9H1207.68ZM1218.78 168.6L1219.64 169.112C1226.94 156.867 1236.91 147.293 1249.56 140.377L1249.08 139.5L1248.6 138.623C1235.64 145.707 1225.41 155.533 1217.92 168.088L1218.78 168.6ZM1249.08 139.5L1249.56 140.377C1262.19 133.467 1276.62 130 1292.88 130V129V128C1276.33 128 1261.56 131.533 1248.6 138.623L1249.08 139.5ZM1292.88 129V130C1309.33 130 1323.86 133.468 1336.5 140.377L1336.98 139.5L1337.46 138.623C1324.49 131.532 1309.62 128 1292.88 128V129ZM1336.98 139.5L1336.5 140.38C1349.35 147.298 1359.31 156.772 1366.42 168.808L1367.28 168.3L1368.14 167.792C1360.84 155.428 1350.6 145.702 1337.45 138.62L1336.98 139.5ZM1367.28 168.3L1366.42 168.819C1373.72 180.842 1377.38 194.858 1377.38 210.9H1378.38H1379.38C1379.38 194.542 1375.64 180.158 1368.13 167.781L1367.28 168.3ZM1378.38 210.9H1377.38C1377.38 226.537 1373.72 240.457 1366.42 252.688L1367.28 253.2L1368.14 253.712C1375.64 241.143 1379.38 226.863 1379.38 210.9H1378.38ZM1367.28 253.2L1366.41 252.698C1359.31 264.936 1349.34 274.609 1336.49 281.725L1336.98 282.6L1337.46 283.475C1350.61 276.191 1360.85 266.264 1368.14 253.702L1367.28 253.2ZM1336.98 282.6L1336.5 281.723C1323.86 288.632 1309.33 292.1 1292.88 292.1V293.1V294.1C1309.62 294.1 1324.49 290.568 1337.46 283.477L1336.98 282.6ZM1292.88 261V262C1302.23 262 1310.6 259.966 1317.96 255.874L1317.48 255L1316.99 254.126C1309.96 258.034 1301.93 260 1292.88 260V261ZM1317.48 255L1317.96 255.874C1325.34 251.776 1331.08 245.83 1335.16 238.066L1334.28 237.6L1333.39 237.134C1329.48 244.57 1324.01 250.224 1316.99 254.126L1317.48 255ZM1334.28 237.6L1335.15 238.084C1339.45 230.312 1341.58 221.24 1341.58 210.9H1340.58H1339.58C1339.58 220.96 1337.51 229.688 1333.4 237.116L1334.28 237.6ZM1340.58 210.9H1341.58C1341.58 200.365 1339.45 191.287 1335.15 183.706L1334.28 184.2L1333.41 184.694C1337.51 191.913 1339.58 200.635 1339.58 210.9H1340.58ZM1334.28 184.2L1335.16 183.734C1331.08 175.97 1325.34 170.024 1317.96 165.926L1317.48 166.8L1316.99 167.674C1324.01 171.576 1329.48 177.23 1333.39 184.666L1334.28 184.2ZM1317.48 166.8L1317.96 165.926C1310.6 161.836 1302.33 159.8 1293.18 159.8V160.8V161.8C1302.02 161.8 1309.95 163.764 1316.99 167.674L1317.48 166.8ZM1293.18 160.8V159.8C1283.83 159.8 1275.46 161.834 1268.09 165.926L1268.58 166.8L1269.06 167.674C1276.1 163.766 1284.13 161.8 1293.18 161.8V160.8ZM1268.58 166.8L1268.08 165.932C1260.91 170.03 1255.18 175.969 1250.9 183.716L1251.78 184.2L1252.65 184.684C1256.77 177.231 1262.24 171.57 1269.07 167.668L1268.58 166.8ZM1251.78 184.2L1250.91 183.706C1246.61 191.287 1244.48 200.365 1244.48 210.9H1245.48H1246.48C1246.48 200.635 1248.55 191.913 1252.65 184.694L1251.78 184.2ZM1245.48 210.9H1244.48C1244.48 221.24 1246.61 230.312 1250.9 238.084L1251.78 237.6L1252.65 237.116C1248.55 229.688 1246.48 220.96 1246.48 210.9H1245.48ZM1251.78 237.6L1250.9 238.084C1255.18 245.831 1260.91 251.77 1268.08 255.868L1268.58 255L1269.07 254.132C1262.24 250.23 1256.77 244.569 1252.65 237.116L1251.78 237.6ZM1268.58 255L1268.09 255.874C1275.45 259.964 1283.72 262 1292.88 262V261V260C1284.03 260 1276.1 258.036 1269.06 254.126L1268.58 255Z" fill="#89CFF0" mask="url(#path-4-outside-1_208_2)"/>
</svg>
